<svg width="440" height="88" viewBox="0 0 440 88" fill="none" xmlns="http://www.w3.org/2000/svg">
<path d="M0 17V31.9189C0 33.5766 4.68444 35.2342 4.68444 35.2342C4.68444 46.8378 2.34222 53.4685 2.34222 56.7838C2.34222 58.4414 2.34222 60.0991 4.68444 61.7568C7.02667 63.4144 7.02667 63.4144 9.36889 61.7568C11.7111 60.0991 11.7111 58.4414 11.7111 56.7838C11.7111 53.4685 9.36889 46.8378 9.36889 35.2342C9.36889 35.2342 14.0533 33.5766 14.0533 31.9189V17H11.4183V26.9459H8.34417V17H5.70917V26.9459H2.635V17H0ZM29.5706 17C27.2283 17 27.2283 18.6577 27.2283 18.6577V46.8378H27.2869C26.6135 51.5829 25.7644 54.7946 25.7644 56.7838C25.7644 58.4414 25.7644 60.0991 28.1067 61.7568C30.4489 63.4144 30.4489 63.4144 32.7911 61.7568C35.1333 60.0991 35.1333 58.4414 35.1333 56.7838C35.1333 54.4941 34.0208 50.6194 33.3181 44.6104C35.1187 41.4919 36.5972 37.5342 36.5972 33.5766C36.5972 28.6036 32.8204 19.3207 29.5706 17ZM53.8711 17C51.3863 17 49.0033 18.0479 47.2463 19.9131C45.4893 21.7783 44.5022 24.3081 44.5022 26.9459C44.5047 29.1462 45.1943 31.2834 46.4631 33.0232C47.7319 34.7629 49.5083 36.0069 51.5142 36.5604C51.3532 47.3455 49.1867 53.5928 49.1867 56.7838C49.1867 58.4414 49.1867 60.0991 51.5289 61.7568C53.8711 63.4144 53.8711 63.4144 56.2133 61.7568C58.5556 60.0991 58.5556 58.4414 58.5556 56.7838C58.5556 53.5928 56.389 47.3455 56.228 36.5707C58.2355 36.0168 60.0131 34.7713 61.2821 33.0294C62.5511 31.2876 63.2397 29.1479 63.24 26.9459C63.24 24.3081 62.2529 21.7783 60.4959 19.9131C58.7389 18.0479 56.3559 17 53.8711 17Z" fill="#505A30"/>
<path d="M81.8399 17C75.6871 17 70.6799 22.0544 70.6799 28.2653C70.6799 29.0122 70.9739 29.7286 71.4971 30.2568C72.0203 30.7849 72.73 31.0816 73.4699 31.0816C74.2099 31.0816 74.9195 30.7849 75.4428 30.2568C75.966 29.7286 76.2599 29.0122 76.2599 28.2653C76.2599 25.1636 78.7672 22.6327 81.8399 22.6327C84.9127 22.6327 87.4199 25.1636 87.4199 28.2653C87.4199 30.7174 86.9661 32.088 86.4751 32.9592C85.9654 33.8679 85.2809 34.4988 84.2393 35.3737L84.0496 35.5314C83.0824 36.3388 81.773 37.4353 80.776 39.0575C79.66 40.8712 79.0499 43.113 79.0499 46.102V47.9796C79.0499 48.7265 79.3439 49.4429 79.8671 49.971C80.3903 50.4992 81.1 50.7959 81.8399 50.7959C82.5799 50.7959 83.2895 50.4992 83.8128 49.971C84.336 49.4429 84.6299 48.7265 84.6299 47.9796V46.102C84.6299 43.9278 85.0615 42.7675 85.519 42.0278C86.0249 41.2054 86.6945 40.6384 87.8105 39.6996C88.8633 38.8134 90.2657 37.623 91.3259 35.7455C92.4047 33.8304 92.9999 31.4459 92.9999 28.2653C92.9999 22.0544 87.9928 17 81.8399 17ZM81.8399 63C82.8265 63 83.7727 62.6044 84.4704 61.9002C85.168 61.1959 85.5599 60.2408 85.5599 59.2449C85.5599 58.249 85.168 57.2939 84.4704 56.5896C83.7727 55.8854 82.8265 55.4898 81.8399 55.4898C80.8533 55.4898 79.9071 55.8854 79.2095 56.5896C78.5119 57.2939 78.1199 58.249 78.1199 59.2449C78.1199 60.2408 78.5119 61.1959 79.2095 61.9002C79.9071 62.6044 80.8533 63 81.8399 63Z" fill="#505A30"/>
<path d="M142.136 63L132.856 44.344H123.992V63H116.184V16.92H135.928C140.323 16.92 143.8 18.1467 146.36 20.6C148.941 23.032 150.232 26.4027 150.232 30.712C150.232 34.1253 149.411 36.952 147.768 39.192C146.125 41.432 143.832 42.9467 140.888 43.736L150.904 63H142.136ZM123.992 23.896V37.464H135.032C137.336 37.464 139.117 36.8773 140.376 35.704C141.656 34.5093 142.296 32.8453 142.296 30.712C142.296 28.6 141.656 26.936 140.376 25.72C139.117 24.504 137.336 23.896 135.032 23.896H123.992ZM161.864 48.504C162.162 51.3627 163.09 53.6027 164.648 55.224C166.226 56.8453 168.445 57.656 171.304 57.656C173.053 57.656 174.61 57.336 175.976 56.696C177.362 56.0347 178.642 54.8933 179.816 53.272L185.128 57.016C181.864 61.5813 177.16 63.864 171.016 63.864C166.109 63.864 162.077 62.264 158.92 59.064C155.784 55.8427 154.216 51.6293 154.216 46.424C154.216 41.048 155.72 36.728 158.728 33.464C161.757 30.1787 165.629 28.536 170.344 28.536C175.186 28.536 179.069 30.1893 181.992 33.496C184.914 36.8027 186.376 41.1547 186.376 46.552V48.504H161.864ZM170.312 34.744C168.242 34.744 166.472 35.4373 165 36.824C163.528 38.1893 162.546 40.1627 162.056 42.744H178.632C178.162 40.2053 177.181 38.2427 175.688 36.856C174.216 35.448 172.424 34.744 170.312 34.744ZM207.886 63.864C202.894 63.864 198.873 62.264 195.822 59.064C192.793 55.8427 191.278 51.576 191.278 46.264C191.278 40.9307 192.782 36.664 195.79 33.464C198.819 30.2427 202.819 28.632 207.79 28.632C214.211 28.632 218.894 31.3413 221.838 36.76L215.63 39.96C214.67 38.2747 213.571 37.0587 212.334 36.312C211.097 35.544 209.657 35.16 208.014 35.16C205.177 35.16 202.937 36.1627 201.294 38.168C199.651 40.1733 198.83 42.8613 198.83 46.232C198.83 49.6453 199.662 52.3547 201.326 54.36C202.99 56.3653 205.219 57.368 208.014 57.368C209.678 57.368 211.129 56.952 212.366 56.12C213.603 55.288 214.691 53.9653 215.63 52.152L221.934 55.16C220.227 58.4027 218.201 60.664 215.854 61.944C213.529 63.224 210.873 63.864 207.886 63.864ZM228.227 23.928V16.92H236.099V23.928H228.227ZM228.483 63V29.4H235.843V63H228.483ZM263.094 28.536C267.211 28.536 270.614 30.1573 273.302 33.4C276.011 36.6427 277.366 40.8987 277.366 46.168C277.366 51.3733 276 55.6187 273.27 58.904C270.56 62.1893 267.147 63.832 263.03 63.832C260.662 63.832 258.582 63.3733 256.79 62.456C254.998 61.5173 253.536 60.28 252.406 58.744V74.2H245.046V29.4H252.278V33.752C253.366 32.216 254.816 30.968 256.63 30.008C258.464 29.0267 260.619 28.536 263.094 28.536ZM261.046 57.304C263.584 57.304 265.675 56.3227 267.318 54.36C268.96 52.3973 269.782 49.6667 269.782 46.168C269.782 42.6693 268.96 39.9493 267.318 38.008C265.675 36.0453 263.584 35.064 261.046 35.064C258.443 35.064 256.31 36.0773 254.646 38.104C252.982 40.1307 252.15 42.8187 252.15 46.168C252.15 49.5387 252.982 52.2373 254.646 54.264C256.331 56.2907 258.464 57.304 261.046 57.304ZM284.483 63V16.92H291.843V63H284.483ZM306.614 48.504C306.912 51.3627 307.84 53.6027 309.398 55.224C310.976 56.8453 313.195 57.656 316.054 57.656C317.803 57.656 319.36 57.336 320.726 56.696C322.112 56.0347 323.392 54.8933 324.566 53.272L329.878 57.016C326.614 61.5813 321.91 63.864 315.766 63.864C310.859 63.864 306.827 62.264 303.67 59.064C300.534 55.8427 298.966 51.6293 298.966 46.424C298.966 41.048 300.47 36.728 303.478 33.464C306.507 30.1787 310.379 28.536 315.094 28.536C319.936 28.536 323.819 30.1893 326.742 33.496C329.664 36.8027 331.126 41.1547 331.126 46.552V48.504H306.614ZM315.062 34.744C312.992 34.744 311.222 35.4373 309.75 36.824C308.278 38.1893 307.296 40.1627 306.806 42.744H323.382C322.912 40.2053 321.931 38.2427 320.438 36.856C318.966 35.448 317.174 34.744 315.062 34.744ZM350.53 28.6C354.882 28.6 358.306 29.7413 360.802 32.024C363.298 34.2853 364.546 37.6453 364.546 42.104V63H357.282V59.064C356.45 60.472 355.191 61.624 353.506 62.52C351.821 63.3947 349.751 63.832 347.298 63.832C343.97 63.832 341.229 62.8933 339.074 61.016C336.919 59.1173 335.842 56.5573 335.842 53.336C335.842 46.232 341.239 42.68 352.034 42.68H357.154V42.296C357.154 39.8 356.535 37.944 355.298 36.728C354.082 35.512 352.365 34.904 350.146 34.904C346.861 34.904 344.151 36.2907 342.018 39.064L337.282 34.744C338.754 32.7813 340.631 31.2667 342.914 30.2C345.197 29.1333 347.735 28.6 350.53 28.6ZM357.186 50.392V48.056H353.186C349.901 48.056 347.383 48.44 345.634 49.208C343.906 49.9547 343.042 51.2773 343.042 53.176C343.042 54.776 343.554 55.992 344.578 56.824C345.602 57.656 347.021 58.072 348.834 58.072C350.477 58.072 351.959 57.656 353.282 56.824C354.605 55.992 355.586 55 356.226 53.848C356.866 52.696 357.186 51.544 357.186 50.392ZM386.155 63.96C379.222 63.96 374.006 61.72 370.507 57.24L375.563 52.984C377.995 56.0987 381.568 57.656 386.283 57.656C388.31 57.656 389.899 57.304 391.051 56.6C392.224 55.8747 392.811 54.872 392.811 53.592C392.811 53.016 392.672 52.5147 392.395 52.088C392.139 51.6613 391.808 51.3093 391.403 51.032C391.019 50.7333 390.443 50.4667 389.675 50.232C388.928 49.9973 388.203 49.816 387.499 49.688C386.795 49.5387 385.878 49.3787 384.747 49.208C383.296 48.9733 381.995 48.696 380.843 48.376C379.691 48.056 378.571 47.6187 377.483 47.064C376.416 46.5093 375.52 45.8587 374.795 45.112C374.07 44.3653 373.483 43.448 373.035 42.36C372.608 41.272 372.395 40.0453 372.395 38.68C372.395 35.5013 373.622 33.0053 376.075 31.192C378.55 29.3787 381.835 28.472 385.931 28.472C391.712 28.472 396.246 30.392 399.531 34.232L394.699 38.52C392.48 36.0027 389.547 34.744 385.899 34.744C384.043 34.744 382.539 35.064 381.387 35.704C380.256 36.3227 379.691 37.2293 379.691 38.424C379.691 39.7253 380.331 40.6747 381.611 41.272C382.891 41.8693 384.918 42.392 387.691 42.84C389.099 43.0533 390.326 43.2987 391.371 43.576C392.438 43.832 393.547 44.2267 394.699 44.76C395.851 45.272 396.8 45.88 397.547 46.584C398.294 47.288 398.902 48.2053 399.371 49.336C399.862 50.4667 400.107 51.7573 400.107 53.208C400.107 56.6213 398.827 59.2667 396.267 61.144C393.728 63.0213 390.358 63.96 386.155 63.96ZM412.614 48.504C412.912 51.3627 413.84 53.6027 415.398 55.224C416.976 56.8453 419.195 57.656 422.054 57.656C423.803 57.656 425.36 57.336 426.726 56.696C428.112 56.0347 429.392 54.8933 430.566 53.272L435.878 57.016C432.614 61.5813 427.91 63.864 421.766 63.864C416.859 63.864 412.827 62.264 409.67 59.064C406.534 55.8427 404.966 51.6293 404.966 46.424C404.966 41.048 406.47 36.728 409.478 33.464C412.507 30.1787 416.379 28.536 421.094 28.536C425.936 28.536 429.819 30.1893 432.742 33.496C435.664 36.8027 437.126 41.1547 437.126 46.552V48.504H412.614ZM421.062 34.744C418.992 34.744 417.222 35.4373 415.75 36.824C414.278 38.1893 413.296 40.1627 412.806 42.744H429.382C428.912 40.2053 427.931 38.2427 426.438 36.856C424.966 35.448 423.174 34.744 421.062 34.744Z" fill="#505A30"/>
</svg>
