<svg width="469" height="77" viewBox="0 0 469 77" fill="none" xmlns="http://www.w3.org/2000/svg">
<path d="M0 13V27.9189C0 29.5766 4.65467 31.2342 4.65467 31.2342C4.65467 42.8378 2.32734 49.4685 2.32734 52.7838C2.32734 54.4414 2.32734 56.0991 4.65467 57.7568C6.98201 59.4144 6.98201 59.4144 9.30934 57.7568C11.6367 56.0991 11.6367 54.4414 11.6367 52.7838C11.6367 49.4685 9.30934 42.8378 9.30934 31.2342C9.30934 31.2342 13.964 29.5766 13.964 27.9189V13H11.3458V22.9459H8.29113V13H5.67288V22.9459H2.61825V13H0ZM29.3826 13C27.0553 13 27.0553 14.6577 27.0553 14.6577V42.8378H27.1135C26.4443 47.5829 25.6007 50.7946 25.6007 52.7838C25.6007 54.4414 25.6007 56.0991 27.928 57.7568C30.2554 59.4144 30.2554 59.4144 32.5827 57.7568C34.91 56.0991 34.91 54.4414 34.91 52.7838C34.91 50.4941 33.8045 46.6194 33.1063 40.6104C34.8955 37.4919 36.3646 33.5342 36.3646 29.5766C36.3646 24.6036 32.6118 15.3207 29.3826 13ZM53.5287 13C51.0597 13 48.6919 14.0479 46.946 15.9131C45.2002 17.7783 44.2194 20.3081 44.2194 22.9459C44.2218 25.1462 44.907 27.2834 46.1678 29.0232C47.4285 30.7629 49.1937 32.0069 51.1868 32.5604C51.0268 43.3455 48.874 49.5928 48.874 52.7838C48.874 54.4414 48.874 56.0991 51.2014 57.7568C53.5287 59.4144 53.5287 59.4144 55.856 57.7568C58.1834 56.0991 58.1834 54.4414 58.1834 52.7838C58.1834 49.5928 56.0306 43.3455 55.8706 32.5707C57.8654 32.0168 59.6317 30.7713 60.8926 29.0294C62.1535 27.2876 62.8378 25.1479 62.8381 22.9459C62.8381 20.3081 61.8573 17.7783 60.1114 15.9131C58.3656 14.0479 55.9977 13 53.5287 13Z" fill="#BBCC85"/>
<path d="M81.3198 13C75.206 13 70.2307 18.0544 70.2307 24.2653C70.2307 25.0122 70.5228 25.7286 71.0427 26.2568C71.5626 26.7849 72.2677 27.0816 73.003 27.0816C73.7382 27.0816 74.4434 26.7849 74.9633 26.2568C75.4832 25.7286 75.7752 25.0122 75.7752 24.2653C75.7752 21.1636 78.2666 18.6327 81.3198 18.6327C84.373 18.6327 86.8643 21.1636 86.8643 24.2653C86.8643 26.7174 86.4134 28.088 85.9254 28.9592C85.419 29.8679 84.7389 30.4988 83.7039 31.3737L83.5154 31.5314C82.5544 32.3388 81.2532 33.4353 80.2626 35.0575C79.1537 36.8712 78.5475 39.113 78.5475 42.102V43.9796C78.5475 44.7265 78.8396 45.4429 79.3595 45.971C79.8794 46.4992 80.5845 46.7959 81.3198 46.7959C82.055 46.7959 82.7602 46.4992 83.2801 45.971C83.8 45.4429 84.092 44.7265 84.092 43.9796V42.102C84.092 39.9278 84.5208 38.7675 84.9755 38.0278C85.4782 37.2054 86.1435 36.6384 87.2524 35.6996C88.2985 34.8134 89.692 33.623 90.7455 31.7455C91.8174 29.8304 92.4088 27.4459 92.4088 24.2653C92.4088 18.0544 87.4336 13 81.3198 13ZM81.3198 59C82.3001 59 83.2403 58.6044 83.9335 57.9002C84.6267 57.1959 85.0161 56.2408 85.0161 55.2449C85.0161 54.249 84.6267 53.2939 83.9335 52.5896C83.2403 51.8854 82.3001 51.4898 81.3198 51.4898C80.3394 51.4898 79.3993 51.8854 78.7061 52.5896C78.0129 53.2939 77.6234 54.249 77.6234 55.2449C77.6234 56.2408 78.0129 57.1959 78.7061 57.9002C79.3993 58.6044 80.3394 59 81.3198 59Z" fill="#BBCC85"/>
<path d="M120.445 58.72C119.063 58.72 118.037 58.1787 117.365 57.096C116.693 55.976 116.357 53.96 116.357 51.048C116.357 47.3147 116.693 43.6373 117.365 40.016C118.074 36.3947 119.063 32.9973 120.333 29.824C121.639 26.6507 123.207 23.8693 125.037 21.48C126.903 19.0533 129.013 17.168 131.365 15.824C133.717 14.4427 136.274 13.752 139.037 13.752C143.143 13.752 146.186 14.8533 148.165 17.056C150.181 19.2213 151.189 22.4133 151.189 26.632C151.189 28.872 150.741 30.8693 149.845 32.624C148.949 34.3413 147.773 35.704 146.317 36.712C144.898 37.6827 143.367 38.168 141.725 38.168C140.791 38.168 139.802 38 138.757 37.664C140.773 40.2773 142.789 42.5547 144.805 44.496C146.858 46.4373 148.893 48.2293 150.909 49.872C152.962 51.4773 155.015 53.12 157.069 54.8C158.151 55.6587 158.767 56.5733 158.917 57.544C159.066 58.5147 158.805 59.336 158.133 60.008C157.498 60.7173 156.509 61.072 155.165 61.072C154.119 61.072 152.794 60.6053 151.189 59.672C149.583 58.776 147.847 57.5627 145.981 56.032C144.114 54.464 142.247 52.728 140.381 50.824C138.551 48.92 136.871 46.9787 135.341 45C133.847 43.0213 132.634 41.136 131.701 39.344C130.805 37.552 130.357 36.0213 130.357 34.752C130.357 33.5573 130.674 32.6427 131.309 32.008C131.943 31.336 132.765 31 133.773 31C134.594 31 135.341 31.112 136.013 31.336C136.722 31.56 137.469 31.672 138.253 31.672C139.074 31.672 139.933 31.448 140.829 31C141.762 30.552 142.546 29.8613 143.181 28.928C143.815 27.9573 144.133 26.7253 144.133 25.232C144.133 23.5893 143.666 22.488 142.733 21.928C141.837 21.368 140.623 21.088 139.093 21.088C136.965 21.088 135.042 21.8347 133.325 23.328C131.607 24.8213 130.114 26.9307 128.845 29.656C127.575 32.3813 126.549 35.592 125.765 39.288C125.018 42.984 124.514 47.016 124.253 51.384C124.103 54.2213 123.73 56.1627 123.133 57.208C122.535 58.216 121.639 58.72 120.445 58.72ZM173.759 60.904C171.444 60.904 169.578 60.1013 168.159 58.496C166.74 56.8533 166.031 54.2213 166.031 50.6C166.031 48.2853 166.292 45.9707 166.815 43.656C167.375 41.304 168.14 39.0827 169.111 36.992C170.119 34.864 171.276 32.9787 172.583 31.336C173.927 29.6933 175.402 28.4053 177.007 27.472C178.612 26.5013 180.274 26.016 181.991 26.016C184.903 26.016 187.18 26.8 188.823 28.368C190.466 29.936 191.287 31.9333 191.287 34.36C191.287 36.2267 190.764 37.9253 189.719 39.456C188.711 40.9493 187.33 42.2933 185.575 43.488C183.82 44.6827 181.86 45.7653 179.695 46.736C177.53 47.7067 175.308 48.584 173.031 49.368C172.844 50.712 172.751 51.9067 172.751 52.952C172.751 53.5867 173.106 53.904 173.815 53.904C175.495 53.904 177.287 53.6427 179.191 53.12C181.132 52.56 183.092 51.8507 185.071 50.992C187.05 50.096 188.954 49.1813 190.783 48.248C192.612 47.2773 194.274 46.3627 195.767 45.504C197.298 44.608 198.548 43.8987 199.519 43.376C200.527 42.816 201.18 42.536 201.479 42.536C202.3 42.536 202.898 42.7787 203.271 43.264C203.644 43.7493 203.831 44.272 203.831 44.832C203.831 45.0933 203.327 45.672 202.319 46.568C201.348 47.464 200.004 48.528 198.287 49.76C196.607 50.9547 194.703 52.2053 192.575 53.512C190.484 54.7813 188.3 55.9947 186.023 57.152C183.783 58.272 181.599 59.168 179.471 59.84C177.38 60.5493 175.476 60.904 173.759 60.904ZM173.983 44.384C175.514 43.488 177.026 42.5547 178.519 41.584C180.05 40.576 181.319 39.456 182.327 38.224C183.335 36.9547 183.839 35.48 183.839 33.8C183.839 33.3147 183.708 32.9973 183.447 32.848C183.186 32.6613 182.812 32.568 182.327 32.568C181.02 32.568 179.826 33.1467 178.743 34.304C177.698 35.4613 176.764 36.9547 175.943 38.784C175.159 40.576 174.506 42.4427 173.983 44.384ZM209.464 60.568C207.373 60.568 205.562 60.0827 204.032 59.112C202.501 58.1787 201.325 56.9653 200.504 55.472C199.682 53.9413 199.272 52.3733 199.272 50.768C199.272 48.08 199.682 45.5973 200.504 43.32C201.325 41.0053 202.408 38.9147 203.752 37.048C205.096 35.144 206.552 33.464 208.12 32.008C209.725 30.552 211.274 29.3387 212.768 28.368C214.298 27.36 215.661 26.6133 216.856 26.128C218.05 25.6053 218.928 25.344 219.488 25.344C220.496 25.344 221.205 25.568 221.616 26.016C222.064 26.4267 222.288 27.1173 222.288 28.088C222.288 28.648 221.877 29.32 221.056 30.104C220.272 30.888 219.226 31.784 217.92 32.792C216.65 33.8 215.306 34.9387 213.888 36.208C212.469 37.4773 211.106 38.896 209.8 40.464C208.53 42.032 207.485 43.7493 206.664 45.616C205.88 47.4827 205.488 49.5173 205.488 51.72C205.488 52.5413 205.637 53.176 205.936 53.624C206.272 54.072 206.813 54.296 207.56 54.296C209.688 54.296 211.965 53.9227 214.392 53.176C216.856 52.392 219.301 51.4213 221.728 50.264C224.192 49.0693 226.506 47.8373 228.672 46.568C230.874 45.2987 232.76 44.16 234.328 43.152C234.962 42.704 235.504 42.3493 235.952 42.088C236.4 41.8267 236.717 41.696 236.904 41.696C238.024 41.696 238.584 42.2747 238.584 43.432C238.584 44.0293 238.136 44.832 237.24 45.84C236.194 47.1467 234.776 48.4907 232.984 49.872C231.229 51.2533 229.269 52.5787 227.104 53.848C224.976 55.1173 222.792 56.256 220.552 57.264C218.349 58.272 216.277 59.0747 214.336 59.672C212.394 60.2693 210.77 60.568 209.464 60.568ZM236.769 59.84C235.724 59.84 234.791 59.4853 233.969 58.776C233.185 58.0667 232.793 56.9093 232.793 55.304C232.793 54.4453 232.905 53.232 233.129 51.664C233.391 50.096 233.727 48.3973 234.137 46.568C234.548 44.7013 234.996 42.8533 235.481 41.024C236.004 39.1947 236.508 37.5707 236.993 36.152C237.479 34.696 237.908 33.6133 238.281 32.904C238.767 32.0453 239.215 31.5227 239.625 31.336C240.073 31.112 240.503 31 240.913 31C241.66 31 242.351 31.224 242.985 31.672C243.657 32.12 243.993 33.1093 243.993 34.64C243.993 35.2373 243.881 36.208 243.657 37.552C243.433 38.8587 243.153 40.3893 242.817 42.144C242.481 43.8987 242.108 45.7093 241.697 47.576C241.324 49.4427 240.951 51.216 240.577 52.896C240.241 54.5387 239.961 55.92 239.737 57.04C239.551 57.9733 239.159 58.664 238.561 59.112C238.001 59.5973 237.404 59.84 236.769 59.84ZM243.209 25.456C241.977 25.456 240.839 25.1013 239.793 24.392C238.748 23.6453 238.225 22.5067 238.225 20.976C238.225 19.7067 238.543 18.68 239.177 17.896C239.812 17.112 240.559 16.552 241.417 16.216C242.313 15.8427 243.097 15.656 243.769 15.656C244.441 15.656 245.188 15.8053 246.009 16.104C246.831 16.3653 247.54 16.8693 248.137 17.616C248.772 18.3253 249.089 19.352 249.089 20.696C249.089 21.592 248.772 22.4133 248.137 23.16C247.503 23.8693 246.719 24.4293 245.785 24.84C244.889 25.2507 244.031 25.456 243.209 25.456ZM251.614 76.976C250.569 76.976 249.748 76.6027 249.15 75.856C248.59 75.1467 248.31 74.0453 248.31 72.552C248.31 70.4987 248.497 68.0533 248.87 65.216C249.244 62.3787 249.748 59.3733 250.382 56.2C251.017 53.0267 251.708 49.9093 252.454 46.848C253.35 43.3387 254.228 40.1467 255.086 37.272C255.982 34.3973 256.878 32.1013 257.774 30.384C258.708 28.6293 259.641 27.752 260.574 27.752C261.433 27.752 262.18 28.0693 262.814 28.704C263.486 29.3013 263.822 30.1973 263.822 31.392C263.822 32.2507 263.598 33.4827 263.15 35.088C262.702 36.656 262.142 38.616 261.47 40.968C262.74 38.8773 264.046 36.824 265.39 34.808C266.772 32.792 268.172 30.9627 269.59 29.32C271.009 27.6773 272.39 26.3707 273.734 25.4C275.078 24.4293 276.348 23.944 277.542 23.944C278.961 23.944 280.212 24.3547 281.294 25.176C282.414 25.9973 283.292 27.1173 283.926 28.536C284.561 29.9547 284.878 31.56 284.878 33.352C284.878 36.6747 284.281 39.904 283.086 43.04C281.892 46.1387 280.23 48.92 278.102 51.384C276.012 53.848 273.566 55.808 270.766 57.264C267.966 58.6827 264.942 59.392 261.694 59.392C260.761 59.392 259.902 59.2987 259.118 59.112C258.372 58.9627 257.681 58.776 257.046 58.552C256.598 60.9413 256.169 63.3867 255.758 65.888C255.385 68.4267 254.993 71.096 254.582 73.896C254.134 75.9493 253.145 76.976 251.614 76.976ZM278.102 30.552C277.281 30.552 276.236 31.112 274.966 32.232C273.734 33.352 272.39 34.8267 270.934 36.656C269.478 38.448 268.004 40.408 266.51 42.536C265.054 44.6267 263.654 46.68 262.31 48.696C261.004 50.712 259.884 52.4667 258.95 53.96C261.788 53.6613 264.289 52.9147 266.454 51.72C268.62 50.488 270.468 48.9947 271.998 47.24C273.529 45.4853 274.761 43.6373 275.694 41.696C276.665 39.7173 277.374 37.7947 277.822 35.928C278.27 34.0613 278.494 32.4373 278.494 31.056C278.494 30.72 278.364 30.552 278.102 30.552ZM302.624 61.8C299.264 61.8 296.613 60.7733 294.672 58.72C292.768 56.6293 291.816 53.6613 291.816 49.816C291.816 47.7253 292.096 45.28 292.656 42.48C293.216 39.6427 293.944 36.656 294.84 33.52C295.773 30.3467 296.763 27.2107 297.808 24.112C298.891 21.0133 299.955 18.1387 301 15.488C302.045 12.8373 302.96 10.616 303.744 8.824C304.416 7.44267 305.368 6.752 306.6 6.752C307.384 6.752 308.019 6.99467 308.504 7.48C309.027 7.96533 309.288 8.74933 309.288 9.832C309.288 10.3547 309.027 11.4933 308.504 13.248C307.981 15.0027 307.291 17.168 306.432 19.744C305.611 22.2827 304.715 25.0267 303.744 27.976C302.811 30.9253 301.915 33.8933 301.056 36.88C300.235 39.8667 299.563 42.6853 299.04 45.336C298.517 47.9493 298.256 50.1707 298.256 52C298.256 52.7467 298.461 53.344 298.872 53.792C299.32 54.24 299.899 54.464 300.608 54.464C302.139 54.464 303.707 54.184 305.312 53.624C306.955 53.064 308.56 52.3547 310.128 51.496C311.733 50.6373 313.245 49.7227 314.664 48.752C316.083 47.7813 317.352 46.8667 318.472 46.008C319.629 45.112 320.563 44.4027 321.272 43.88C322.205 43.1707 322.84 42.816 323.176 42.816C324.445 42.816 325.08 43.432 325.08 44.664C325.08 44.9627 324.707 45.5787 323.96 46.512C323.325 47.3333 322.429 48.3787 321.272 49.648C320.115 50.9173 318.771 52.2613 317.24 53.68C315.747 55.0613 314.141 56.368 312.424 57.6C310.744 58.832 309.064 59.84 307.384 60.624C305.704 61.408 304.117 61.8 302.624 61.8ZM329.181 60.904C326.866 60.904 325 60.1013 323.581 58.496C322.162 56.8533 321.453 54.2213 321.453 50.6C321.453 48.2853 321.714 45.9707 322.237 43.656C322.797 41.304 323.562 39.0827 324.533 36.992C325.541 34.864 326.698 32.9787 328.005 31.336C329.349 29.6933 330.824 28.4053 332.429 27.472C334.034 26.5013 335.696 26.016 337.413 26.016C340.325 26.016 342.602 26.8 344.245 28.368C345.888 29.936 346.709 31.9333 346.709 34.36C346.709 36.2267 346.186 37.9253 345.141 39.456C344.133 40.9493 342.752 42.2933 340.997 43.488C339.242 44.6827 337.282 45.7653 335.117 46.736C332.952 47.7067 330.73 48.584 328.453 49.368C328.266 50.712 328.173 51.9067 328.173 52.952C328.173 53.5867 328.528 53.904 329.237 53.904C330.917 53.904 332.709 53.6427 334.613 53.12C336.554 52.56 338.514 51.8507 340.493 50.992C342.472 50.096 344.376 49.1813 346.205 48.248C348.034 47.2773 349.696 46.3627 351.189 45.504C352.72 44.608 353.97 43.8987 354.941 43.376C355.949 42.816 356.602 42.536 356.901 42.536C357.722 42.536 358.32 42.7787 358.693 43.264C359.066 43.7493 359.253 44.272 359.253 44.832C359.253 45.0933 358.749 45.672 357.741 46.568C356.77 47.464 355.426 48.528 353.709 49.76C352.029 50.9547 350.125 52.2053 347.997 53.512C345.906 54.7813 343.722 55.9947 341.445 57.152C339.205 58.272 337.021 59.168 334.893 59.84C332.802 60.5493 330.898 60.904 329.181 60.904ZM329.405 44.384C330.936 43.488 332.448 42.5547 333.941 41.584C335.472 40.576 336.741 39.456 337.749 38.224C338.757 36.9547 339.261 35.48 339.261 33.8C339.261 33.3147 339.13 32.9973 338.869 32.848C338.608 32.6613 338.234 32.568 337.749 32.568C336.442 32.568 335.248 33.1467 334.165 34.304C333.12 35.4613 332.186 36.9547 331.365 38.784C330.581 40.576 329.928 42.4427 329.405 44.384ZM358.614 61.128C357.419 61.128 356.336 60.792 355.366 60.12C354.395 59.4853 353.63 58.6453 353.07 57.6C352.51 56.5173 352.23 55.36 352.23 54.128C352.23 51.8133 352.734 49.5547 353.742 47.352C354.787 45.1493 356.15 43.0587 357.83 41.08C359.51 39.1013 361.339 37.2907 363.318 35.648C365.334 33.968 367.331 32.5307 369.31 31.336C371.326 30.1413 373.155 29.208 374.798 28.536C376.478 27.864 377.784 27.528 378.718 27.528C379.8 27.528 380.678 27.7707 381.35 28.256C382.059 28.704 382.414 29.4133 382.414 30.384C382.414 30.6827 382.339 30.9253 382.19 31.112C382.675 31.224 383.067 31.504 383.366 31.952C383.664 32.4 383.814 33.072 383.814 33.968C383.814 34.3413 383.72 35.312 383.534 36.88C383.347 38.448 383.142 40.352 382.918 42.592C382.731 44.832 382.638 47.1653 382.638 49.592C382.638 49.9653 382.694 50.3013 382.806 50.6C382.918 50.8613 383.16 50.992 383.534 50.992C385.027 50.992 386.539 50.6933 388.07 50.096C389.638 49.4613 391.15 48.696 392.606 47.8C394.099 46.8667 395.443 45.952 396.638 45.056C397.87 44.1227 398.896 43.3573 399.718 42.76C400.576 42.1253 401.136 41.808 401.398 41.808C402.667 41.808 403.302 42.4427 403.302 43.712C403.302 44.048 402.891 44.7573 402.07 45.84C401.286 46.8853 400.203 48.0987 398.822 49.48C397.44 50.824 395.891 52.168 394.174 53.512C392.494 54.8187 390.739 55.9013 388.91 56.76C387.118 57.6187 385.382 58.048 383.702 58.048C381.648 58.048 380.08 57.5627 378.998 56.592C377.952 55.6213 377.206 54.3147 376.758 52.672C376.347 50.992 376.123 49.1067 376.086 47.016C374.182 49.7413 372.203 52.168 370.15 54.296C368.134 56.3867 366.136 58.048 364.158 59.28C362.179 60.512 360.331 61.128 358.614 61.128ZM378.438 33.072C374.779 34.8267 371.494 36.8427 368.582 39.12C365.67 41.36 363.355 43.712 361.638 46.176C359.958 48.64 359.118 51.0107 359.118 53.288C359.118 53.9227 359.416 54.24 360.014 54.24C360.723 54.24 361.656 53.8293 362.814 53.008C364.008 52.1867 365.296 51.104 366.678 49.76C368.059 48.3787 369.44 46.848 370.822 45.168C372.203 43.4507 373.491 41.696 374.686 39.904C375.88 38.112 376.832 36.3947 377.542 34.752C377.803 34.1547 378.102 33.5947 378.438 33.072ZM403.994 61.856C402.389 61.856 401.25 61.632 400.578 61.184C399.944 60.736 399.626 60.0827 399.626 59.224C399.626 58.4773 399.888 57.8427 400.41 57.32C400.933 56.76 402.09 56.2 403.882 55.64C405.973 55.0053 407.952 54.2773 409.818 53.456C411.722 52.5973 413.272 51.664 414.466 50.656C415.698 49.648 416.314 48.584 416.314 47.464C416.314 46.7173 416.053 46.176 415.53 45.84C415.045 45.504 414.466 45.336 413.794 45.336C413.234 45.336 412.413 45.4293 411.33 45.616C410.285 45.7653 409.128 45.9707 407.858 46.232C406.589 46.456 405.357 46.6613 404.162 46.848C403.005 46.9973 402.016 47.072 401.194 47.072C399.253 47.072 397.816 46.6427 396.882 45.784C395.949 44.888 395.482 43.7493 395.482 42.368C395.482 41.6213 395.874 40.5947 396.658 39.288C397.442 37.9813 398.488 36.544 399.794 34.976C401.101 33.408 402.557 31.84 404.162 30.272C405.768 28.704 407.392 27.2667 409.034 25.96C410.714 24.616 412.301 23.552 413.794 22.768C415.288 21.9467 416.557 21.536 417.602 21.536C418.797 21.536 419.749 21.9093 420.458 22.656C421.205 23.4027 421.578 24.4107 421.578 25.68C421.578 26.2773 421.522 26.9307 421.41 27.64C421.298 28.312 421.018 28.928 420.57 29.488C420.122 30.0107 419.432 30.384 418.498 30.608C417.565 30.832 416.296 30.7947 414.69 30.496C413.421 31.4293 412.096 32.456 410.714 33.576C409.37 34.6587 408.101 35.7973 406.906 36.992C405.712 38.1493 404.722 39.288 403.938 40.408C405.32 39.96 406.888 39.6053 408.642 39.344C410.397 39.0453 412.17 38.896 413.962 38.896C416.128 38.896 417.882 39.288 419.226 40.072C420.608 40.8187 421.616 41.8267 422.25 43.096C422.922 44.3653 423.258 45.7653 423.258 47.296C423.258 49.0133 422.698 50.7307 421.578 52.448C420.458 54.1653 418.965 55.7333 417.098 57.152C415.232 58.5707 413.16 59.7093 410.882 60.568C408.605 61.4267 406.309 61.856 403.994 61.856ZM437.9 60.904C435.585 60.904 433.718 60.1013 432.3 58.496C430.881 56.8533 430.172 54.2213 430.172 50.6C430.172 48.2853 430.433 45.9707 430.956 43.656C431.516 41.304 432.281 39.0827 433.252 36.992C434.26 34.864 435.417 32.9787 436.724 31.336C438.068 29.6933 439.542 28.4053 441.148 27.472C442.753 26.5013 444.414 26.016 446.132 26.016C449.044 26.016 451.321 26.8 452.964 28.368C454.606 29.936 455.428 31.9333 455.428 34.36C455.428 36.2267 454.905 37.9253 453.86 39.456C452.852 40.9493 451.47 42.2933 449.716 43.488C447.961 44.6827 446.001 45.7653 443.836 46.736C441.67 47.7067 439.449 48.584 437.172 49.368C436.985 50.712 436.892 51.9067 436.892 52.952C436.892 53.5867 437.246 53.904 437.956 53.904C439.636 53.904 441.428 53.6427 443.332 53.12C445.273 52.56 447.233 51.8507 449.212 50.992C451.19 50.096 453.094 49.1813 454.924 48.248C456.753 47.2773 458.414 46.3627 459.908 45.504C461.438 44.608 462.689 43.8987 463.66 43.376C464.668 42.816 465.321 42.536 465.62 42.536C466.441 42.536 467.038 42.7787 467.412 43.264C467.785 43.7493 467.972 44.272 467.972 44.832C467.972 45.0933 467.468 45.672 466.46 46.568C465.489 47.464 464.145 48.528 462.428 49.76C460.748 50.9547 458.844 52.2053 456.716 53.512C454.625 54.7813 452.441 55.9947 450.164 57.152C447.924 58.272 445.74 59.168 443.612 59.84C441.521 60.5493 439.617 60.904 437.9 60.904ZM438.124 44.384C439.654 43.488 441.166 42.5547 442.66 41.584C444.19 40.576 445.46 39.456 446.468 38.224C447.476 36.9547 447.98 35.48 447.98 33.8C447.98 33.3147 447.849 32.9973 447.588 32.848C447.326 32.6613 446.953 32.568 446.468 32.568C445.161 32.568 443.966 33.1467 442.884 34.304C441.838 35.4613 440.905 36.9547 440.084 38.784C439.3 40.576 438.646 42.4427 438.124 44.384Z" fill="#BBCC85"/>
</svg>
