<svg width="93" height="46" viewBox="0 0 93 46" fill="none" xmlns="http://www.w3.org/2000/svg">
<path d="M0 0V14.9189C0 16.5766 4.68444 18.2342 4.68444 18.2342C4.68444 29.8378 2.34222 36.4685 2.34222 39.7838C2.34222 41.4414 2.34222 43.0991 4.68444 44.7568C7.02667 46.4144 7.02667 46.4144 9.36889 44.7568C11.7111 43.0991 11.7111 41.4414 11.7111 39.7838C11.7111 36.4685 9.36889 29.8378 9.36889 18.2342C9.36889 18.2342 14.0533 16.5766 14.0533 14.9189V0H11.4183V9.94595H8.34417V0H5.70917V9.94595H2.635V0H0ZM29.5706 0C27.2283 0 27.2283 1.65766 27.2283 1.65766V29.8378H27.2869C26.6135 34.5829 25.7644 37.7946 25.7644 39.7838C25.7644 41.4414 25.7644 43.0991 28.1067 44.7568C30.4489 46.4144 30.4489 46.4144 32.7911 44.7568C35.1333 43.0991 35.1333 41.4414 35.1333 39.7838C35.1333 37.4941 34.0208 33.6194 33.3181 27.6104C35.1187 24.4919 36.5972 20.5342 36.5972 16.5766C36.5972 11.6036 32.8204 2.32072 29.5706 0ZM53.8711 0C51.3863 0 49.0033 1.04787 47.2463 2.9131C45.4893 4.77833 44.5022 7.30812 44.5022 9.94595C44.5047 12.1462 45.1943 14.2834 46.4631 16.0232C47.7319 17.7629 49.5083 19.0069 51.5142 19.5604C51.3532 30.3455 49.1867 36.5928 49.1867 39.7838C49.1867 41.4414 49.1867 43.0991 51.5289 44.7568C53.8711 46.4144 53.8711 46.4144 56.2133 44.7568C58.5556 43.0991 58.5556 41.4414 58.5556 39.7838C58.5556 36.5928 56.389 30.3455 56.228 19.5707C58.2355 19.0168 60.0131 17.7713 61.2821 16.0294C62.5511 14.2876 63.2397 12.1479 63.24 9.94595C63.24 7.30812 62.2529 4.77833 60.4959 2.9131C58.7389 1.04787 56.3559 0 53.8711 0Z" fill="#505A30"/>
<path d="M81.8399 0C75.6871 0 70.6799 5.05437 70.6799 11.2653C70.6799 12.0122 70.9739 12.7286 71.4971 13.2568C72.0203 13.7849 72.73 14.0816 73.4699 14.0816C74.2099 14.0816 74.9195 13.7849 75.4428 13.2568C75.966 12.7286 76.2599 12.0122 76.2599 11.2653C76.2599 8.16359 78.7672 5.63265 81.8399 5.63265C84.9127 5.63265 87.4199 8.16359 87.4199 11.2653C87.4199 13.7174 86.9661 15.088 86.4751 15.9592C85.9654 16.8679 85.2809 17.4988 84.2393 18.3737L84.0496 18.5314C83.0824 19.3388 81.773 20.4353 80.776 22.0575C79.66 23.8712 79.0499 26.113 79.0499 29.102V30.9796C79.0499 31.7265 79.3439 32.4429 79.8671 32.971C80.3903 33.4992 81.1 33.7959 81.8399 33.7959C82.5799 33.7959 83.2895 33.4992 83.8128 32.971C84.336 32.4429 84.6299 31.7265 84.6299 30.9796V29.102C84.6299 26.9278 85.0615 25.7675 85.519 25.0278C86.0249 24.2054 86.6945 23.6384 87.8105 22.6996C88.8633 21.8134 90.2657 20.623 91.3259 18.7455C92.4047 16.8304 92.9999 14.4459 92.9999 11.2653C92.9999 5.05437 87.9928 0 81.8399 0ZM81.8399 46C82.8265 46 83.7727 45.6044 84.4704 44.9002C85.168 44.1959 85.5599 43.2408 85.5599 42.2449C85.5599 41.249 85.168 40.2939 84.4704 39.5896C83.7727 38.8854 82.8265 38.4898 81.8399 38.4898C80.8533 38.4898 79.9071 38.8854 79.2095 39.5896C78.5119 40.2939 78.1199 41.249 78.1199 42.2449C78.1199 43.2408 78.5119 44.1959 79.2095 44.9002C79.9071 45.6044 80.8533 46 81.8399 46Z" fill="#505A30"/>
</svg>
