<svg width="465" height="77" viewBox="0 0 465 77" fill="none" xmlns="http://www.w3.org/2000/svg">
<path d="M0 13V27.9189C0 29.5766 4.63461 31.2342 4.63461 31.2342C4.63461 42.8378 2.31731 49.4685 2.31731 52.7838C2.31731 54.4414 2.31731 56.0991 4.63461 57.7568C6.95192 59.4144 6.95192 59.4144 9.26922 57.7568C11.5865 56.0991 11.5865 54.4414 11.5865 52.7838C11.5865 49.4685 9.26922 42.8378 9.26922 31.2342C9.26922 31.2342 13.9038 29.5766 13.9038 27.9189V13H11.2969V22.9459H8.2554V13H5.64843V22.9459H2.60697V13H0ZM29.256 13C26.9387 13 26.9387 14.6577 26.9387 14.6577V42.8378H26.9966C26.3304 47.5829 25.4904 50.7946 25.4904 52.7838C25.4904 54.4414 25.4904 56.0991 27.8077 57.7568C30.125 59.4144 30.125 59.4144 32.4423 57.7568C34.7596 56.0991 34.7596 54.4414 34.7596 52.7838C34.7596 50.4941 33.6589 46.6194 32.9637 40.6104C34.7451 37.4919 36.2079 33.5342 36.2079 29.5766C36.2079 24.6036 32.4712 15.3207 29.256 13ZM53.298 13C50.8397 13 48.482 14.0479 46.7437 15.9131C45.0054 17.7783 44.0288 20.3081 44.0288 22.9459C44.0312 25.1462 44.7135 27.2834 45.9688 29.0232C47.2241 30.7629 48.9816 32.0069 50.9662 32.5604C50.8069 43.3455 48.6634 49.5928 48.6634 52.7838C48.6634 54.4414 48.6634 56.0991 50.9807 57.7568C53.298 59.4144 53.298 59.4144 55.6153 57.7568C57.9326 56.0991 57.9326 54.4414 57.9326 52.7838C57.9326 49.5928 55.7891 43.3455 55.6298 32.5707C57.616 32.0168 59.3747 30.7713 60.6302 29.0294C61.8857 27.2876 62.567 25.1479 62.5672 22.9459C62.5672 20.3081 61.5907 17.7783 59.8523 15.9131C58.114 14.0479 55.7564 13 53.298 13Z" fill="#141B0C"/>
<path d="M80.9693 13C74.8818 13 69.928 18.0544 69.928 24.2653C69.928 25.0122 70.2188 25.7286 70.7365 26.2568C71.2541 26.7849 71.9562 27.0816 72.6883 27.0816C73.4204 27.0816 74.1225 26.7849 74.6401 26.2568C75.1578 25.7286 75.4486 25.0122 75.4486 24.2653C75.4486 21.1636 77.9292 18.6327 80.9693 18.6327C84.0093 18.6327 86.4899 21.1636 86.4899 24.2653C86.4899 26.7174 86.0409 28.088 85.5551 28.9592C85.0508 29.8679 84.3737 30.4988 83.3431 31.3737L83.1554 31.5314C82.1985 32.3388 80.903 33.4353 79.9167 35.0575C78.8125 36.8712 78.2089 39.113 78.2089 42.102V43.9796C78.2089 44.7265 78.4998 45.4429 79.0174 45.971C79.5351 46.4992 80.2372 46.7959 80.9693 46.7959C81.7013 46.7959 82.4034 46.4992 82.9211 45.971C83.4388 45.4429 83.7296 44.7265 83.7296 43.9796V42.102C83.7296 39.9278 84.1565 38.7675 84.6092 38.0278C85.1097 37.2054 85.7722 36.6384 86.8763 35.6996C87.9179 34.8134 89.3054 33.623 90.3543 31.7455C91.4217 29.8304 92.0105 27.4459 92.0105 24.2653C92.0105 18.0544 87.0567 13 80.9693 13ZM80.9693 59C81.9454 59 82.8815 58.6044 83.5717 57.9002C84.2619 57.1959 84.6497 56.2408 84.6497 55.2449C84.6497 54.249 84.2619 53.2939 83.5717 52.5896C82.8815 51.8854 81.9454 51.4898 80.9693 51.4898C79.9931 51.4898 79.057 51.8854 78.3668 52.5896C77.6766 53.2939 77.2888 54.249 77.2888 55.2449C77.2888 56.2408 77.6766 57.1959 78.3668 57.9002C79.057 58.6044 79.9931 59 80.9693 59Z" fill="#141B0C"/>
<path d="M117.006 58.72C115.624 58.72 114.598 58.1787 113.926 57.096C113.254 55.976 112.918 53.96 112.918 51.048C112.918 47.3147 113.254 43.6373 113.926 40.016C114.635 36.3947 115.624 32.9973 116.894 29.824C118.2 26.6507 119.768 23.8693 121.598 21.48C123.464 19.0533 125.574 17.168 127.926 15.824C130.278 14.4427 132.835 13.752 135.598 13.752C139.704 13.752 142.747 14.8533 144.726 17.056C146.742 19.2213 147.75 22.4133 147.75 26.632C147.75 28.872 147.302 30.8693 146.406 32.624C145.51 34.3413 144.334 35.704 142.878 36.712C141.459 37.6827 139.928 38.168 138.286 38.168C137.352 38.168 136.363 38 135.318 37.664C137.334 40.2773 139.35 42.5547 141.366 44.496C143.419 46.4373 145.454 48.2293 147.47 49.872C149.523 51.4773 151.576 53.12 153.63 54.8C154.712 55.6587 155.328 56.5733 155.478 57.544C155.627 58.5147 155.366 59.336 154.694 60.008C154.059 60.7173 153.07 61.072 151.726 61.072C150.68 61.072 149.355 60.6053 147.75 59.672C146.144 58.776 144.408 57.5627 142.542 56.032C140.675 54.464 138.808 52.728 136.942 50.824C135.112 48.92 133.432 46.9787 131.902 45C130.408 43.0213 129.195 41.136 128.262 39.344C127.366 37.552 126.918 36.0213 126.918 34.752C126.918 33.5573 127.235 32.6427 127.87 32.008C128.504 31.336 129.326 31 130.334 31C131.155 31 131.902 31.112 132.574 31.336C133.283 31.56 134.03 31.672 134.814 31.672C135.635 31.672 136.494 31.448 137.39 31C138.323 30.552 139.107 29.8613 139.742 28.928C140.376 27.9573 140.694 26.7253 140.694 25.232C140.694 23.5893 140.227 22.488 139.294 21.928C138.398 21.368 137.184 21.088 135.654 21.088C133.526 21.088 131.603 21.8347 129.886 23.328C128.168 24.8213 126.675 26.9307 125.406 29.656C124.136 32.3813 123.11 35.592 122.326 39.288C121.579 42.984 121.075 47.016 120.814 51.384C120.664 54.2213 120.291 56.1627 119.694 57.208C119.096 58.216 118.2 58.72 117.006 58.72ZM170.32 60.904C168.005 60.904 166.139 60.1013 164.72 58.496C163.301 56.8533 162.592 54.2213 162.592 50.6C162.592 48.2853 162.853 45.9707 163.376 43.656C163.936 41.304 164.701 39.0827 165.672 36.992C166.68 34.864 167.837 32.9787 169.144 31.336C170.488 29.6933 171.963 28.4053 173.568 27.472C175.173 26.5013 176.835 26.016 178.552 26.016C181.464 26.016 183.741 26.8 185.384 28.368C187.027 29.936 187.848 31.9333 187.848 34.36C187.848 36.2267 187.325 37.9253 186.28 39.456C185.272 40.9493 183.891 42.2933 182.136 43.488C180.381 44.6827 178.421 45.7653 176.256 46.736C174.091 47.7067 171.869 48.584 169.592 49.368C169.405 50.712 169.312 51.9067 169.312 52.952C169.312 53.5867 169.667 53.904 170.376 53.904C172.056 53.904 173.848 53.6427 175.752 53.12C177.693 52.56 179.653 51.8507 181.632 50.992C183.611 50.096 185.515 49.1813 187.344 48.248C189.173 47.2773 190.835 46.3627 192.328 45.504C193.859 44.608 195.109 43.8987 196.08 43.376C197.088 42.816 197.741 42.536 198.04 42.536C198.861 42.536 199.459 42.7787 199.832 43.264C200.205 43.7493 200.392 44.272 200.392 44.832C200.392 45.0933 199.888 45.672 198.88 46.568C197.909 47.464 196.565 48.528 194.848 49.76C193.168 50.9547 191.264 52.2053 189.136 53.512C187.045 54.7813 184.861 55.9947 182.584 57.152C180.344 58.272 178.16 59.168 176.032 59.84C173.941 60.5493 172.037 60.904 170.32 60.904ZM170.544 44.384C172.075 43.488 173.587 42.5547 175.08 41.584C176.611 40.576 177.88 39.456 178.888 38.224C179.896 36.9547 180.4 35.48 180.4 33.8C180.4 33.3147 180.269 32.9973 180.008 32.848C179.747 32.6613 179.373 32.568 178.888 32.568C177.581 32.568 176.387 33.1467 175.304 34.304C174.259 35.4613 173.325 36.9547 172.504 38.784C171.72 40.576 171.067 42.4427 170.544 44.384ZM206.025 60.568C203.934 60.568 202.123 60.0827 200.593 59.112C199.062 58.1787 197.886 56.9653 197.065 55.472C196.243 53.9413 195.833 52.3733 195.833 50.768C195.833 48.08 196.243 45.5973 197.065 43.32C197.886 41.0053 198.969 38.9147 200.313 37.048C201.657 35.144 203.113 33.464 204.681 32.008C206.286 30.552 207.835 29.3387 209.329 28.368C210.859 27.36 212.222 26.6133 213.417 26.128C214.611 25.6053 215.489 25.344 216.049 25.344C217.057 25.344 217.766 25.568 218.177 26.016C218.625 26.4267 218.849 27.1173 218.849 28.088C218.849 28.648 218.438 29.32 217.617 30.104C216.833 30.888 215.787 31.784 214.481 32.792C213.211 33.8 211.867 34.9387 210.449 36.208C209.03 37.4773 207.667 38.896 206.361 40.464C205.091 42.032 204.046 43.7493 203.225 45.616C202.441 47.4827 202.049 49.5173 202.049 51.72C202.049 52.5413 202.198 53.176 202.497 53.624C202.833 54.072 203.374 54.296 204.121 54.296C206.249 54.296 208.526 53.9227 210.953 53.176C213.417 52.392 215.862 51.4213 218.289 50.264C220.753 49.0693 223.067 47.8373 225.233 46.568C227.435 45.2987 229.321 44.16 230.889 43.152C231.523 42.704 232.065 42.3493 232.513 42.088C232.961 41.8267 233.278 41.696 233.465 41.696C234.585 41.696 235.145 42.2747 235.145 43.432C235.145 44.0293 234.697 44.832 233.801 45.84C232.755 47.1467 231.337 48.4907 229.545 49.872C227.79 51.2533 225.83 52.5787 223.665 53.848C221.537 55.1173 219.353 56.256 217.113 57.264C214.91 58.272 212.838 59.0747 210.897 59.672C208.955 60.2693 207.331 60.568 206.025 60.568ZM233.331 59.84C232.285 59.84 231.352 59.4853 230.531 58.776C229.747 58.0667 229.355 56.9093 229.355 55.304C229.355 54.4453 229.467 53.232 229.691 51.664C229.952 50.096 230.288 48.3973 230.699 46.568C231.109 44.7013 231.557 42.8533 232.043 41.024C232.565 39.1947 233.069 37.5707 233.555 36.152C234.04 34.696 234.469 33.6133 234.843 32.904C235.328 32.0453 235.776 31.5227 236.187 31.336C236.635 31.112 237.064 31 237.475 31C238.221 31 238.912 31.224 239.547 31.672C240.219 32.12 240.555 33.1093 240.555 34.64C240.555 35.2373 240.443 36.208 240.219 37.552C239.995 38.8587 239.715 40.3893 239.379 42.144C239.043 43.8987 238.669 45.7093 238.259 47.576C237.885 49.4427 237.512 51.216 237.139 52.896C236.803 54.5387 236.523 55.92 236.299 57.04C236.112 57.9733 235.72 58.664 235.123 59.112C234.563 59.5973 233.965 59.84 233.331 59.84ZM239.771 25.456C238.539 25.456 237.4 25.1013 236.355 24.392C235.309 23.6453 234.787 22.5067 234.787 20.976C234.787 19.7067 235.104 18.68 235.739 17.896C236.373 17.112 237.12 16.552 237.979 16.216C238.875 15.8427 239.659 15.656 240.331 15.656C241.003 15.656 241.749 15.8053 242.571 16.104C243.392 16.3653 244.101 16.8693 244.699 17.616C245.333 18.3253 245.651 19.352 245.651 20.696C245.651 21.592 245.333 22.4133 244.699 23.16C244.064 23.8693 243.28 24.4293 242.347 24.84C241.451 25.2507 240.592 25.456 239.771 25.456ZM248.175 76.976C247.13 76.976 246.309 76.6027 245.711 75.856C245.151 75.1467 244.871 74.0453 244.871 72.552C244.871 70.4987 245.058 68.0533 245.431 65.216C245.805 62.3787 246.309 59.3733 246.943 56.2C247.578 53.0267 248.269 49.9093 249.015 46.848C249.911 43.3387 250.789 40.1467 251.647 37.272C252.543 34.3973 253.439 32.1013 254.335 30.384C255.269 28.6293 256.202 27.752 257.135 27.752C257.994 27.752 258.741 28.0693 259.375 28.704C260.047 29.3013 260.383 30.1973 260.383 31.392C260.383 32.2507 260.159 33.4827 259.711 35.088C259.263 36.656 258.703 38.616 258.031 40.968C259.301 38.8773 260.607 36.824 261.951 34.808C263.333 32.792 264.733 30.9627 266.151 29.32C267.57 27.6773 268.951 26.3707 270.295 25.4C271.639 24.4293 272.909 23.944 274.103 23.944C275.522 23.944 276.773 24.3547 277.855 25.176C278.975 25.9973 279.853 27.1173 280.487 28.536C281.122 29.9547 281.439 31.56 281.439 33.352C281.439 36.6747 280.842 39.904 279.647 43.04C278.453 46.1387 276.791 48.92 274.663 51.384C272.573 53.848 270.127 55.808 267.327 57.264C264.527 58.6827 261.503 59.392 258.255 59.392C257.322 59.392 256.463 59.2987 255.679 59.112C254.933 58.9627 254.242 58.776 253.607 58.552C253.159 60.9413 252.73 63.3867 252.319 65.888C251.946 68.4267 251.554 71.096 251.143 73.896C250.695 75.9493 249.706 76.976 248.175 76.976ZM274.663 30.552C273.842 30.552 272.797 31.112 271.527 32.232C270.295 33.352 268.951 34.8267 267.495 36.656C266.039 38.448 264.565 40.408 263.071 42.536C261.615 44.6267 260.215 46.68 258.871 48.696C257.565 50.712 256.445 52.4667 255.511 53.96C258.349 53.6613 260.85 52.9147 263.015 51.72C265.181 50.488 267.029 48.9947 268.559 47.24C270.09 45.4853 271.322 43.6373 272.255 41.696C273.226 39.7173 273.935 37.7947 274.383 35.928C274.831 34.0613 275.055 32.4373 275.055 31.056C275.055 30.72 274.925 30.552 274.663 30.552ZM299.185 61.8C295.825 61.8 293.175 60.7733 291.233 58.72C289.329 56.6293 288.377 53.6613 288.377 49.816C288.377 47.7253 288.657 45.28 289.217 42.48C289.777 39.6427 290.505 36.656 291.401 33.52C292.335 30.3467 293.324 27.2107 294.369 24.112C295.452 21.0133 296.516 18.1387 297.561 15.488C298.607 12.8373 299.521 10.616 300.305 8.824C300.977 7.44267 301.929 6.752 303.161 6.752C303.945 6.752 304.58 6.99467 305.065 7.48C305.588 7.96533 305.849 8.74933 305.849 9.832C305.849 10.3547 305.588 11.4933 305.065 13.248C304.543 15.0027 303.852 17.168 302.993 19.744C302.172 22.2827 301.276 25.0267 300.305 27.976C299.372 30.9253 298.476 33.8933 297.617 36.88C296.796 39.8667 296.124 42.6853 295.601 45.336C295.079 47.9493 294.817 50.1707 294.817 52C294.817 52.7467 295.023 53.344 295.433 53.792C295.881 54.24 296.46 54.464 297.169 54.464C298.7 54.464 300.268 54.184 301.873 53.624C303.516 53.064 305.121 52.3547 306.689 51.496C308.295 50.6373 309.807 49.7227 311.225 48.752C312.644 47.7813 313.913 46.8667 315.033 46.008C316.191 45.112 317.124 44.4027 317.833 43.88C318.767 43.1707 319.401 42.816 319.737 42.816C321.007 42.816 321.641 43.432 321.641 44.664C321.641 44.9627 321.268 45.5787 320.521 46.512C319.887 47.3333 318.991 48.3787 317.833 49.648C316.676 50.9173 315.332 52.2613 313.801 53.68C312.308 55.0613 310.703 56.368 308.985 57.6C307.305 58.832 305.625 59.84 303.945 60.624C302.265 61.408 300.679 61.8 299.185 61.8ZM325.742 60.904C323.427 60.904 321.561 60.1013 320.142 58.496C318.723 56.8533 318.014 54.2213 318.014 50.6C318.014 48.2853 318.275 45.9707 318.798 43.656C319.358 41.304 320.123 39.0827 321.094 36.992C322.102 34.864 323.259 32.9787 324.566 31.336C325.91 29.6933 327.385 28.4053 328.99 27.472C330.595 26.5013 332.257 26.016 333.974 26.016C336.886 26.016 339.163 26.8 340.806 28.368C342.449 29.936 343.27 31.9333 343.27 34.36C343.27 36.2267 342.747 37.9253 341.702 39.456C340.694 40.9493 339.313 42.2933 337.558 43.488C335.803 44.6827 333.843 45.7653 331.678 46.736C329.513 47.7067 327.291 48.584 325.014 49.368C324.827 50.712 324.734 51.9067 324.734 52.952C324.734 53.5867 325.089 53.904 325.798 53.904C327.478 53.904 329.27 53.6427 331.174 53.12C333.115 52.56 335.075 51.8507 337.054 50.992C339.033 50.096 340.937 49.1813 342.766 48.248C344.595 47.2773 346.257 46.3627 347.75 45.504C349.281 44.608 350.531 43.8987 351.502 43.376C352.51 42.816 353.163 42.536 353.462 42.536C354.283 42.536 354.881 42.7787 355.254 43.264C355.627 43.7493 355.814 44.272 355.814 44.832C355.814 45.0933 355.31 45.672 354.302 46.568C353.331 47.464 351.987 48.528 350.27 49.76C348.59 50.9547 346.686 52.2053 344.558 53.512C342.467 54.7813 340.283 55.9947 338.006 57.152C335.766 58.272 333.582 59.168 331.454 59.84C329.363 60.5493 327.459 60.904 325.742 60.904ZM325.966 44.384C327.497 43.488 329.009 42.5547 330.502 41.584C332.033 40.576 333.302 39.456 334.31 38.224C335.318 36.9547 335.822 35.48 335.822 33.8C335.822 33.3147 335.691 32.9973 335.43 32.848C335.169 32.6613 334.795 32.568 334.31 32.568C333.003 32.568 331.809 33.1467 330.726 34.304C329.681 35.4613 328.747 36.9547 327.926 38.784C327.142 40.576 326.489 42.4427 325.966 44.384ZM355.175 61.128C353.98 61.128 352.897 60.792 351.927 60.12C350.956 59.4853 350.191 58.6453 349.631 57.6C349.071 56.5173 348.791 55.36 348.791 54.128C348.791 51.8133 349.295 49.5547 350.303 47.352C351.348 45.1493 352.711 43.0587 354.391 41.08C356.071 39.1013 357.9 37.2907 359.879 35.648C361.895 33.968 363.892 32.5307 365.871 31.336C367.887 30.1413 369.716 29.208 371.359 28.536C373.039 27.864 374.345 27.528 375.279 27.528C376.361 27.528 377.239 27.7707 377.911 28.256C378.62 28.704 378.975 29.4133 378.975 30.384C378.975 30.6827 378.9 30.9253 378.751 31.112C379.236 31.224 379.628 31.504 379.927 31.952C380.225 32.4 380.375 33.072 380.375 33.968C380.375 34.3413 380.281 35.312 380.095 36.88C379.908 38.448 379.703 40.352 379.479 42.592C379.292 44.832 379.199 47.1653 379.199 49.592C379.199 49.9653 379.255 50.3013 379.367 50.6C379.479 50.8613 379.721 50.992 380.095 50.992C381.588 50.992 383.1 50.6933 384.631 50.096C386.199 49.4613 387.711 48.696 389.167 47.8C390.66 46.8667 392.004 45.952 393.199 45.056C394.431 44.1227 395.457 43.3573 396.279 42.76C397.137 42.1253 397.697 41.808 397.959 41.808C399.228 41.808 399.863 42.4427 399.863 43.712C399.863 44.048 399.452 44.7573 398.631 45.84C397.847 46.8853 396.764 48.0987 395.383 49.48C394.001 50.824 392.452 52.168 390.735 53.512C389.055 54.8187 387.3 55.9013 385.471 56.76C383.679 57.6187 381.943 58.048 380.263 58.048C378.209 58.048 376.641 57.5627 375.559 56.592C374.513 55.6213 373.767 54.3147 373.319 52.672C372.908 50.992 372.684 49.1067 372.647 47.016C370.743 49.7413 368.764 52.168 366.711 54.296C364.695 56.3867 362.697 58.048 360.719 59.28C358.74 60.512 356.892 61.128 355.175 61.128ZM374.999 33.072C371.34 34.8267 368.055 36.8427 365.143 39.12C362.231 41.36 359.916 43.712 358.199 46.176C356.519 48.64 355.679 51.0107 355.679 53.288C355.679 53.9227 355.977 54.24 356.575 54.24C357.284 54.24 358.217 53.8293 359.375 53.008C360.569 52.1867 361.857 51.104 363.239 49.76C364.62 48.3787 366.001 46.848 367.383 45.168C368.764 43.4507 370.052 41.696 371.247 39.904C372.441 38.112 373.393 36.3947 374.103 34.752C374.364 34.1547 374.663 33.5947 374.999 33.072ZM400.555 61.856C398.95 61.856 397.811 61.632 397.139 61.184C396.505 60.736 396.187 60.0827 396.187 59.224C396.187 58.4773 396.449 57.8427 396.971 57.32C397.494 56.76 398.651 56.2 400.443 55.64C402.534 55.0053 404.513 54.2773 406.379 53.456C408.283 52.5973 409.833 51.664 411.027 50.656C412.259 49.648 412.875 48.584 412.875 47.464C412.875 46.7173 412.614 46.176 412.091 45.84C411.606 45.504 411.027 45.336 410.355 45.336C409.795 45.336 408.974 45.4293 407.891 45.616C406.846 45.7653 405.689 45.9707 404.419 46.232C403.15 46.456 401.918 46.6613 400.723 46.848C399.566 46.9973 398.577 47.072 397.755 47.072C395.814 47.072 394.377 46.6427 393.443 45.784C392.51 44.888 392.043 43.7493 392.043 42.368C392.043 41.6213 392.435 40.5947 393.219 39.288C394.003 37.9813 395.049 36.544 396.355 34.976C397.662 33.408 399.118 31.84 400.723 30.272C402.329 28.704 403.953 27.2667 405.595 25.96C407.275 24.616 408.862 23.552 410.355 22.768C411.849 21.9467 413.118 21.536 414.163 21.536C415.358 21.536 416.31 21.9093 417.019 22.656C417.766 23.4027 418.139 24.4107 418.139 25.68C418.139 26.2773 418.083 26.9307 417.971 27.64C417.859 28.312 417.579 28.928 417.131 29.488C416.683 30.0107 415.993 30.384 415.059 30.608C414.126 30.832 412.857 30.7947 411.251 30.496C409.982 31.4293 408.657 32.456 407.275 33.576C405.931 34.6587 404.662 35.7973 403.467 36.992C402.273 38.1493 401.283 39.288 400.499 40.408C401.881 39.96 403.449 39.6053 405.203 39.344C406.958 39.0453 408.731 38.896 410.523 38.896C412.689 38.896 414.443 39.288 415.787 40.072C417.169 40.8187 418.177 41.8267 418.811 43.096C419.483 44.3653 419.819 45.7653 419.819 47.296C419.819 49.0133 419.259 50.7307 418.139 52.448C417.019 54.1653 415.526 55.7333 413.659 57.152C411.793 58.5707 409.721 59.7093 407.443 60.568C405.166 61.4267 402.87 61.856 400.555 61.856ZM434.461 60.904C432.146 60.904 430.279 60.1013 428.861 58.496C427.442 56.8533 426.733 54.2213 426.733 50.6C426.733 48.2853 426.994 45.9707 427.517 43.656C428.077 41.304 428.842 39.0827 429.813 36.992C430.821 34.864 431.978 32.9787 433.285 31.336C434.629 29.6933 436.103 28.4053 437.709 27.472C439.314 26.5013 440.975 26.016 442.693 26.016C445.605 26.016 447.882 26.8 449.525 28.368C451.167 29.936 451.989 31.9333 451.989 34.36C451.989 36.2267 451.466 37.9253 450.421 39.456C449.413 40.9493 448.031 42.2933 446.277 43.488C444.522 44.6827 442.562 45.7653 440.397 46.736C438.231 47.7067 436.01 48.584 433.733 49.368C433.546 50.712 433.453 51.9067 433.453 52.952C433.453 53.5867 433.807 53.904 434.517 53.904C436.197 53.904 437.989 53.6427 439.893 53.12C441.834 52.56 443.794 51.8507 445.773 50.992C447.751 50.096 449.655 49.1813 451.485 48.248C453.314 47.2773 454.975 46.3627 456.469 45.504C457.999 44.608 459.25 43.8987 460.221 43.376C461.229 42.816 461.882 42.536 462.181 42.536C463.002 42.536 463.599 42.7787 463.973 43.264C464.346 43.7493 464.533 44.272 464.533 44.832C464.533 45.0933 464.029 45.672 463.021 46.568C462.05 47.464 460.706 48.528 458.989 49.76C457.309 50.9547 455.405 52.2053 453.277 53.512C451.186 54.7813 449.002 55.9947 446.725 57.152C444.485 58.272 442.301 59.168 440.173 59.84C438.082 60.5493 436.178 60.904 434.461 60.904ZM434.685 44.384C436.215 43.488 437.727 42.5547 439.221 41.584C440.751 40.576 442.021 39.456 443.029 38.224C444.037 36.9547 444.541 35.48 444.541 33.8C444.541 33.3147 444.41 32.9973 444.149 32.848C443.887 32.6613 443.514 32.568 443.029 32.568C441.722 32.568 440.527 33.1467 439.445 34.304C438.399 35.4613 437.466 36.9547 436.645 38.784C435.861 40.576 435.207 42.4427 434.685 44.384Z" fill="#141B0C"/>
</svg>
