<svg width="469" height="77" viewBox="0 0 469 77" fill="none" xmlns="http://www.w3.org/2000/svg">
<path d="M0 13V27.9189C0 29.5766 4.80745 31.2342 4.80745 31.2342C4.80745 42.8378 2.40372 49.4685 2.40372 52.7838C2.40372 54.4414 2.40372 56.0991 4.80745 57.7568C7.21117 59.4144 7.21117 59.4144 9.6149 57.7568C12.0186 56.0991 12.0186 54.4414 12.0186 52.7838C12.0186 49.4685 9.6149 42.8378 9.6149 31.2342C9.6149 31.2342 14.4223 29.5766 14.4223 27.9189V13H11.7182V22.9459H8.56327V13H5.85908V22.9459H2.70419V13H0ZM30.347 13C27.9433 13 27.9433 14.6577 27.9433 14.6577V42.8378H28.0034C27.3123 47.5829 26.441 50.7946 26.441 52.7838C26.441 54.4414 26.441 56.0991 28.8447 57.7568C31.2484 59.4144 31.2484 59.4144 33.6521 57.7568C36.0559 56.0991 36.0559 54.4414 36.0559 52.7838C36.0559 50.4941 34.9141 46.6194 34.193 40.6104C36.0409 37.4919 37.5582 33.5342 37.5582 29.5766C37.5582 24.6036 33.6822 15.3207 30.347 13ZM55.2857 13C52.7356 13 50.2901 14.0479 48.4869 15.9131C46.6838 17.7783 45.6708 20.3081 45.6708 22.9459C45.6733 25.1462 46.381 27.2834 47.6831 29.0232C48.9853 30.7629 50.8083 32.0069 52.8669 32.5604C52.7017 43.3455 50.4782 49.5928 50.4782 52.7838C50.4782 54.4414 50.4782 56.0991 52.8819 57.7568C55.2857 59.4144 55.2857 59.4144 57.6894 57.7568C60.0931 56.0991 60.0931 54.4414 60.0931 52.7838C60.0931 49.5928 57.8697 43.3455 57.7044 32.5707C59.7647 32.0168 61.589 30.7713 62.8913 29.0294C64.1936 27.2876 64.9003 25.1479 64.9006 22.9459C64.9006 20.3081 63.8876 17.7783 62.0844 15.9131C60.2813 14.0479 57.8357 13 55.2857 13Z" fill="#FEFAE0"/>
<path d="M83.9889 13C77.6745 13 72.5359 18.0544 72.5359 24.2653C72.5359 25.0122 72.8376 25.7286 73.3745 26.2568C73.9115 26.7849 74.6398 27.0816 75.3991 27.0816C76.1585 27.0816 76.8868 26.7849 77.4238 26.2568C77.9607 25.7286 78.2624 25.0122 78.2624 24.2653C78.2624 21.1636 80.8355 18.6327 83.9889 18.6327C87.1423 18.6327 89.7155 21.1636 89.7155 24.2653C89.7155 26.7174 89.2497 28.088 88.7458 28.9592C88.2227 29.8679 87.5203 30.4988 86.4513 31.3737L86.2566 31.5314C85.264 32.3388 83.9202 33.4353 82.8971 35.0575C81.7518 36.8712 81.1257 39.113 81.1257 42.102V43.9796C81.1257 44.7265 81.4273 45.4429 81.9643 45.971C82.5013 46.4992 83.2295 46.7959 83.9889 46.7959C84.7483 46.7959 85.4766 46.4992 86.0136 45.971C86.5505 45.4429 86.8522 44.7265 86.8522 43.9796V42.102C86.8522 39.9278 87.295 38.7675 87.7646 38.0278C88.2838 37.2054 88.971 36.6384 90.1163 35.6996C91.1967 34.8134 92.636 33.623 93.724 31.7455C94.8311 29.8304 95.442 27.4459 95.442 24.2653C95.442 18.0544 90.3034 13 83.9889 13ZM83.9889 59C85.0014 59 85.9725 58.6044 86.6884 57.9002C87.4044 57.1959 87.8066 56.2408 87.8066 55.2449C87.8066 54.249 87.4044 53.2939 86.6884 52.5896C85.9725 51.8854 85.0014 51.4898 83.9889 51.4898C82.9764 51.4898 82.0054 51.8854 81.2894 52.5896C80.5735 53.2939 80.1712 54.249 80.1712 55.2449C80.1712 56.2408 80.5735 57.1959 81.2894 57.9002C82.0054 58.6044 82.9764 59 83.9889 59Z" fill="#FEFAE0"/>
<path d="M120.954 58.72C119.572 58.72 118.546 58.1787 117.874 57.096C117.202 55.976 116.866 53.96 116.866 51.048C116.866 47.3147 117.202 43.6373 117.874 40.016C118.583 36.3947 119.572 32.9973 120.842 29.824C122.148 26.6507 123.716 23.8693 125.546 21.48C127.412 19.0533 129.522 17.168 131.874 15.824C134.226 14.4427 136.783 13.752 139.546 13.752C143.652 13.752 146.695 14.8533 148.674 17.056C150.69 19.2213 151.698 22.4133 151.698 26.632C151.698 28.872 151.25 30.8693 150.354 32.624C149.458 34.3413 148.282 35.704 146.826 36.712C145.407 37.6827 143.876 38.168 142.234 38.168C141.3 38.168 140.311 38 139.266 37.664C141.282 40.2773 143.298 42.5547 145.314 44.496C147.367 46.4373 149.402 48.2293 151.418 49.872C153.471 51.4773 155.524 53.12 157.578 54.8C158.66 55.6587 159.276 56.5733 159.426 57.544C159.575 58.5147 159.314 59.336 158.642 60.008C158.007 60.7173 157.018 61.072 155.674 61.072C154.628 61.072 153.303 60.6053 151.698 59.672C150.092 58.776 148.356 57.5627 146.49 56.032C144.623 54.464 142.756 52.728 140.89 50.824C139.06 48.92 137.38 46.9787 135.85 45C134.356 43.0213 133.143 41.136 132.21 39.344C131.314 37.552 130.866 36.0213 130.866 34.752C130.866 33.5573 131.183 32.6427 131.818 32.008C132.452 31.336 133.274 31 134.282 31C135.103 31 135.85 31.112 136.522 31.336C137.231 31.56 137.978 31.672 138.762 31.672C139.583 31.672 140.442 31.448 141.338 31C142.271 30.552 143.055 29.8613 143.69 28.928C144.324 27.9573 144.642 26.7253 144.642 25.232C144.642 23.5893 144.175 22.488 143.242 21.928C142.346 21.368 141.132 21.088 139.602 21.088C137.474 21.088 135.551 21.8347 133.834 23.328C132.116 24.8213 130.623 26.9307 129.354 29.656C128.084 32.3813 127.058 35.592 126.274 39.288C125.527 42.984 125.023 47.016 124.762 51.384C124.612 54.2213 124.239 56.1627 123.642 57.208C123.044 58.216 122.148 58.72 120.954 58.72ZM174.268 60.904C171.953 60.904 170.086 60.1013 168.668 58.496C167.249 56.8533 166.54 54.2213 166.54 50.6C166.54 48.2853 166.801 45.9707 167.324 43.656C167.884 41.304 168.649 39.0827 169.62 36.992C170.628 34.864 171.785 32.9787 173.092 31.336C174.436 29.6933 175.91 28.4053 177.516 27.472C179.121 26.5013 180.782 26.016 182.5 26.016C185.412 26.016 187.689 26.8 189.332 28.368C190.974 29.936 191.796 31.9333 191.796 34.36C191.796 36.2267 191.273 37.9253 190.228 39.456C189.22 40.9493 187.838 42.2933 186.084 43.488C184.329 44.6827 182.369 45.7653 180.204 46.736C178.038 47.7067 175.817 48.584 173.54 49.368C173.353 50.712 173.26 51.9067 173.26 52.952C173.26 53.5867 173.614 53.904 174.324 53.904C176.004 53.904 177.796 53.6427 179.7 53.12C181.641 52.56 183.601 51.8507 185.58 50.992C187.558 50.096 189.462 49.1813 191.292 48.248C193.121 47.2773 194.782 46.3627 196.276 45.504C197.806 44.608 199.057 43.8987 200.028 43.376C201.036 42.816 201.689 42.536 201.988 42.536C202.809 42.536 203.406 42.7787 203.78 43.264C204.153 43.7493 204.34 44.272 204.34 44.832C204.34 45.0933 203.836 45.672 202.828 46.568C201.857 47.464 200.513 48.528 198.796 49.76C197.116 50.9547 195.212 52.2053 193.084 53.512C190.993 54.7813 188.809 55.9947 186.532 57.152C184.292 58.272 182.108 59.168 179.98 59.84C177.889 60.5493 175.985 60.904 174.268 60.904ZM174.492 44.384C176.022 43.488 177.534 42.5547 179.028 41.584C180.558 40.576 181.828 39.456 182.836 38.224C183.844 36.9547 184.348 35.48 184.348 33.8C184.348 33.3147 184.217 32.9973 183.956 32.848C183.694 32.6613 183.321 32.568 182.836 32.568C181.529 32.568 180.334 33.1467 179.252 34.304C178.206 35.4613 177.273 36.9547 176.452 38.784C175.668 40.576 175.014 42.4427 174.492 44.384ZM209.973 60.568C207.882 60.568 206.071 60.0827 204.541 59.112C203.01 58.1787 201.834 56.9653 201.013 55.472C200.191 53.9413 199.781 52.3733 199.781 50.768C199.781 48.08 200.191 45.5973 201.013 43.32C201.834 41.0053 202.917 38.9147 204.261 37.048C205.605 35.144 207.061 33.464 208.629 32.008C210.234 30.552 211.783 29.3387 213.277 28.368C214.807 27.36 216.17 26.6133 217.365 26.128C218.559 25.6053 219.437 25.344 219.997 25.344C221.005 25.344 221.714 25.568 222.125 26.016C222.573 26.4267 222.797 27.1173 222.797 28.088C222.797 28.648 222.386 29.32 221.565 30.104C220.781 30.888 219.735 31.784 218.429 32.792C217.159 33.8 215.815 34.9387 214.397 36.208C212.978 37.4773 211.615 38.896 210.309 40.464C209.039 42.032 207.994 43.7493 207.173 45.616C206.389 47.4827 205.997 49.5173 205.997 51.72C205.997 52.5413 206.146 53.176 206.445 53.624C206.781 54.072 207.322 54.296 208.069 54.296C210.197 54.296 212.474 53.9227 214.901 53.176C217.365 52.392 219.81 51.4213 222.237 50.264C224.701 49.0693 227.015 47.8373 229.181 46.568C231.383 45.2987 233.269 44.16 234.837 43.152C235.471 42.704 236.013 42.3493 236.461 42.088C236.909 41.8267 237.226 41.696 237.413 41.696C238.533 41.696 239.093 42.2747 239.093 43.432C239.093 44.0293 238.645 44.832 237.749 45.84C236.703 47.1467 235.285 48.4907 233.493 49.872C231.738 51.2533 229.778 52.5787 227.613 53.848C225.485 55.1173 223.301 56.256 221.061 57.264C218.858 58.272 216.786 59.0747 214.845 59.672C212.903 60.2693 211.279 60.568 209.973 60.568ZM237.278 59.84C236.233 59.84 235.3 59.4853 234.478 58.776C233.694 58.0667 233.302 56.9093 233.302 55.304C233.302 54.4453 233.414 53.232 233.638 51.664C233.9 50.096 234.236 48.3973 234.646 46.568C235.057 44.7013 235.505 42.8533 235.99 41.024C236.513 39.1947 237.017 37.5707 237.502 36.152C237.988 34.696 238.417 33.6133 238.79 32.904C239.276 32.0453 239.724 31.5227 240.134 31.336C240.582 31.112 241.012 31 241.422 31C242.169 31 242.86 31.224 243.494 31.672C244.166 32.12 244.502 33.1093 244.502 34.64C244.502 35.2373 244.39 36.208 244.166 37.552C243.942 38.8587 243.662 40.3893 243.326 42.144C242.99 43.8987 242.617 45.7093 242.206 47.576C241.833 49.4427 241.46 51.216 241.086 52.896C240.75 54.5387 240.47 55.92 240.246 57.04C240.06 57.9733 239.668 58.664 239.07 59.112C238.51 59.5973 237.913 59.84 237.278 59.84ZM243.718 25.456C242.486 25.456 241.348 25.1013 240.302 24.392C239.257 23.6453 238.734 22.5067 238.734 20.976C238.734 19.7067 239.052 18.68 239.686 17.896C240.321 17.112 241.068 16.552 241.926 16.216C242.822 15.8427 243.606 15.656 244.278 15.656C244.95 15.656 245.697 15.8053 246.518 16.104C247.34 16.3653 248.049 16.8693 248.646 17.616C249.281 18.3253 249.598 19.352 249.598 20.696C249.598 21.592 249.281 22.4133 248.646 23.16C248.012 23.8693 247.228 24.4293 246.294 24.84C245.398 25.2507 244.54 25.456 243.718 25.456ZM252.123 76.976C251.078 76.976 250.256 76.6027 249.659 75.856C249.099 75.1467 248.819 74.0453 248.819 72.552C248.819 70.4987 249.006 68.0533 249.379 65.216C249.752 62.3787 250.256 59.3733 250.891 56.2C251.526 53.0267 252.216 49.9093 252.963 46.848C253.859 43.3387 254.736 40.1467 255.595 37.272C256.491 34.3973 257.387 32.1013 258.283 30.384C259.216 28.6293 260.15 27.752 261.083 27.752C261.942 27.752 262.688 28.0693 263.323 28.704C263.995 29.3013 264.331 30.1973 264.331 31.392C264.331 32.2507 264.107 33.4827 263.659 35.088C263.211 36.656 262.651 38.616 261.979 40.968C263.248 38.8773 264.555 36.824 265.899 34.808C267.28 32.792 268.68 30.9627 270.099 29.32C271.518 27.6773 272.899 26.3707 274.243 25.4C275.587 24.4293 276.856 23.944 278.051 23.944C279.47 23.944 280.72 24.3547 281.803 25.176C282.923 25.9973 283.8 27.1173 284.435 28.536C285.07 29.9547 285.387 31.56 285.387 33.352C285.387 36.6747 284.79 39.904 283.595 43.04C282.4 46.1387 280.739 48.92 278.611 51.384C276.52 53.848 274.075 55.808 271.275 57.264C268.475 58.6827 265.451 59.392 262.203 59.392C261.27 59.392 260.411 59.2987 259.627 59.112C258.88 58.9627 258.19 58.776 257.555 58.552C257.107 60.9413 256.678 63.3867 256.267 65.888C255.894 68.4267 255.502 71.096 255.091 73.896C254.643 75.9493 253.654 76.976 252.123 76.976ZM278.611 30.552C277.79 30.552 276.744 31.112 275.475 32.232C274.243 33.352 272.899 34.8267 271.443 36.656C269.987 38.448 268.512 40.408 267.019 42.536C265.563 44.6267 264.163 46.68 262.819 48.696C261.512 50.712 260.392 52.4667 259.459 53.96C262.296 53.6613 264.798 52.9147 266.963 51.72C269.128 50.488 270.976 48.9947 272.507 47.24C274.038 45.4853 275.27 43.6373 276.203 41.696C277.174 39.7173 277.883 37.7947 278.331 35.928C278.779 34.0613 279.003 32.4373 279.003 31.056C279.003 30.72 278.872 30.552 278.611 30.552ZM303.133 61.8C299.773 61.8 297.122 60.7733 295.181 58.72C293.277 56.6293 292.325 53.6613 292.325 49.816C292.325 47.7253 292.605 45.28 293.165 42.48C293.725 39.6427 294.453 36.656 295.349 33.52C296.282 30.3467 297.272 27.2107 298.317 24.112C299.4 21.0133 300.464 18.1387 301.509 15.488C302.554 12.8373 303.469 10.616 304.253 8.824C304.925 7.44267 305.877 6.752 307.109 6.752C307.893 6.752 308.528 6.99467 309.013 7.48C309.536 7.96533 309.797 8.74933 309.797 9.832C309.797 10.3547 309.536 11.4933 309.013 13.248C308.49 15.0027 307.8 17.168 306.941 19.744C306.12 22.2827 305.224 25.0267 304.253 27.976C303.32 30.9253 302.424 33.8933 301.565 36.88C300.744 39.8667 300.072 42.6853 299.549 45.336C299.026 47.9493 298.765 50.1707 298.765 52C298.765 52.7467 298.97 53.344 299.381 53.792C299.829 54.24 300.408 54.464 301.117 54.464C302.648 54.464 304.216 54.184 305.821 53.624C307.464 53.064 309.069 52.3547 310.637 51.496C312.242 50.6373 313.754 49.7227 315.173 48.752C316.592 47.7813 317.861 46.8667 318.981 46.008C320.138 45.112 321.072 44.4027 321.781 43.88C322.714 43.1707 323.349 42.816 323.685 42.816C324.954 42.816 325.589 43.432 325.589 44.664C325.589 44.9627 325.216 45.5787 324.469 46.512C323.834 47.3333 322.938 48.3787 321.781 49.648C320.624 50.9173 319.28 52.2613 317.749 53.68C316.256 55.0613 314.65 56.368 312.933 57.6C311.253 58.832 309.573 59.84 307.893 60.624C306.213 61.408 304.626 61.8 303.133 61.8ZM329.69 60.904C327.375 60.904 325.508 60.1013 324.09 58.496C322.671 56.8533 321.962 54.2213 321.962 50.6C321.962 48.2853 322.223 45.9707 322.746 43.656C323.306 41.304 324.071 39.0827 325.042 36.992C326.05 34.864 327.207 32.9787 328.514 31.336C329.858 29.6933 331.332 28.4053 332.938 27.472C334.543 26.5013 336.204 26.016 337.922 26.016C340.834 26.016 343.111 26.8 344.754 28.368C346.396 29.936 347.218 31.9333 347.218 34.36C347.218 36.2267 346.695 37.9253 345.65 39.456C344.642 40.9493 343.26 42.2933 341.506 43.488C339.751 44.6827 337.791 45.7653 335.626 46.736C333.46 47.7067 331.239 48.584 328.962 49.368C328.775 50.712 328.682 51.9067 328.682 52.952C328.682 53.5867 329.036 53.904 329.746 53.904C331.426 53.904 333.218 53.6427 335.122 53.12C337.063 52.56 339.023 51.8507 341.002 50.992C342.98 50.096 344.884 49.1813 346.714 48.248C348.543 47.2773 350.204 46.3627 351.698 45.504C353.228 44.608 354.479 43.8987 355.45 43.376C356.458 42.816 357.111 42.536 357.41 42.536C358.231 42.536 358.828 42.7787 359.202 43.264C359.575 43.7493 359.762 44.272 359.762 44.832C359.762 45.0933 359.258 45.672 358.25 46.568C357.279 47.464 355.935 48.528 354.218 49.76C352.538 50.9547 350.634 52.2053 348.506 53.512C346.415 54.7813 344.231 55.9947 341.954 57.152C339.714 58.272 337.53 59.168 335.402 59.84C333.311 60.5493 331.407 60.904 329.69 60.904ZM329.914 44.384C331.444 43.488 332.956 42.5547 334.45 41.584C335.98 40.576 337.25 39.456 338.258 38.224C339.266 36.9547 339.77 35.48 339.77 33.8C339.77 33.3147 339.639 32.9973 339.378 32.848C339.116 32.6613 338.743 32.568 338.258 32.568C336.951 32.568 335.756 33.1467 334.674 34.304C333.628 35.4613 332.695 36.9547 331.874 38.784C331.09 40.576 330.436 42.4427 329.914 44.384ZM359.122 61.128C357.928 61.128 356.845 60.792 355.874 60.12C354.904 59.4853 354.138 58.6453 353.578 57.6C353.018 56.5173 352.738 55.36 352.738 54.128C352.738 51.8133 353.242 49.5547 354.25 47.352C355.296 45.1493 356.658 43.0587 358.338 41.08C360.018 39.1013 361.848 37.2907 363.826 35.648C365.842 33.968 367.84 32.5307 369.818 31.336C371.834 30.1413 373.664 29.208 375.306 28.536C376.986 27.864 378.293 27.528 379.226 27.528C380.309 27.528 381.186 27.7707 381.858 28.256C382.568 28.704 382.922 29.4133 382.922 30.384C382.922 30.6827 382.848 30.9253 382.698 31.112C383.184 31.224 383.576 31.504 383.874 31.952C384.173 32.4 384.322 33.072 384.322 33.968C384.322 34.3413 384.229 35.312 384.042 36.88C383.856 38.448 383.65 40.352 383.426 42.592C383.24 44.832 383.146 47.1653 383.146 49.592C383.146 49.9653 383.202 50.3013 383.314 50.6C383.426 50.8613 383.669 50.992 384.042 50.992C385.536 50.992 387.048 50.6933 388.578 50.096C390.146 49.4613 391.658 48.696 393.114 47.8C394.608 46.8667 395.952 45.952 397.146 45.056C398.378 44.1227 399.405 43.3573 400.226 42.76C401.085 42.1253 401.645 41.808 401.906 41.808C403.176 41.808 403.81 42.4427 403.81 43.712C403.81 44.048 403.4 44.7573 402.578 45.84C401.794 46.8853 400.712 48.0987 399.33 49.48C397.949 50.824 396.4 52.168 394.682 53.512C393.002 54.8187 391.248 55.9013 389.418 56.76C387.626 57.6187 385.89 58.048 384.21 58.048C382.157 58.048 380.589 57.5627 379.506 56.592C378.461 55.6213 377.714 54.3147 377.266 52.672C376.856 50.992 376.632 49.1067 376.594 47.016C374.69 49.7413 372.712 52.168 370.658 54.296C368.642 56.3867 366.645 58.048 364.666 59.28C362.688 60.512 360.84 61.128 359.122 61.128ZM378.946 33.072C375.288 34.8267 372.002 36.8427 369.09 39.12C366.178 41.36 363.864 43.712 362.146 46.176C360.466 48.64 359.626 51.0107 359.626 53.288C359.626 53.9227 359.925 54.24 360.522 54.24C361.232 54.24 362.165 53.8293 363.322 53.008C364.517 52.1867 365.805 51.104 367.186 49.76C368.568 48.3787 369.949 46.848 371.33 45.168C372.712 43.4507 374 41.696 375.194 39.904C376.389 38.112 377.341 36.3947 378.05 34.752C378.312 34.1547 378.61 33.5947 378.946 33.072ZM404.503 61.856C402.898 61.856 401.759 61.632 401.087 61.184C400.452 60.736 400.135 60.0827 400.135 59.224C400.135 58.4773 400.396 57.8427 400.919 57.32C401.442 56.76 402.599 56.2 404.391 55.64C406.482 55.0053 408.46 54.2773 410.327 53.456C412.231 52.5973 413.78 51.664 414.975 50.656C416.207 49.648 416.823 48.584 416.823 47.464C416.823 46.7173 416.562 46.176 416.039 45.84C415.554 45.504 414.975 45.336 414.303 45.336C413.743 45.336 412.922 45.4293 411.839 45.616C410.794 45.7653 409.636 45.9707 408.367 46.232C407.098 46.456 405.866 46.6613 404.671 46.848C403.514 46.9973 402.524 47.072 401.703 47.072C399.762 47.072 398.324 46.6427 397.391 45.784C396.458 44.888 395.991 43.7493 395.991 42.368C395.991 41.6213 396.383 40.5947 397.167 39.288C397.951 37.9813 398.996 36.544 400.303 34.976C401.61 33.408 403.066 31.84 404.671 30.272C406.276 28.704 407.9 27.2667 409.543 25.96C411.223 24.616 412.81 23.552 414.303 22.768C415.796 21.9467 417.066 21.536 418.111 21.536C419.306 21.536 420.258 21.9093 420.967 22.656C421.714 23.4027 422.087 24.4107 422.087 25.68C422.087 26.2773 422.031 26.9307 421.919 27.64C421.807 28.312 421.527 28.928 421.079 29.488C420.631 30.0107 419.94 30.384 419.007 30.608C418.074 30.832 416.804 30.7947 415.199 30.496C413.93 31.4293 412.604 32.456 411.223 33.576C409.879 34.6587 408.61 35.7973 407.415 36.992C406.22 38.1493 405.231 39.288 404.447 40.408C405.828 39.96 407.396 39.6053 409.151 39.344C410.906 39.0453 412.679 38.896 414.471 38.896C416.636 38.896 418.391 39.288 419.735 40.072C421.116 40.8187 422.124 41.8267 422.759 43.096C423.431 44.3653 423.767 45.7653 423.767 47.296C423.767 49.0133 423.207 50.7307 422.087 52.448C420.967 54.1653 419.474 55.7333 417.607 57.152C415.74 58.5707 413.668 59.7093 411.391 60.568C409.114 61.4267 406.818 61.856 404.503 61.856ZM438.408 60.904C436.094 60.904 434.227 60.1013 432.808 58.496C431.39 56.8533 430.68 54.2213 430.68 50.6C430.68 48.2853 430.942 45.9707 431.464 43.656C432.024 41.304 432.79 39.0827 433.76 36.992C434.768 34.864 435.926 32.9787 437.232 31.336C438.576 29.6933 440.051 28.4053 441.656 27.472C443.262 26.5013 444.923 26.016 446.64 26.016C449.552 26.016 451.83 26.8 453.472 28.368C455.115 29.936 455.936 31.9333 455.936 34.36C455.936 36.2267 455.414 37.9253 454.368 39.456C453.36 40.9493 451.979 42.2933 450.224 43.488C448.47 44.6827 446.51 45.7653 444.344 46.736C442.179 47.7067 439.958 48.584 437.68 49.368C437.494 50.712 437.4 51.9067 437.4 52.952C437.4 53.5867 437.755 53.904 438.464 53.904C440.144 53.904 441.936 53.6427 443.84 53.12C445.782 52.56 447.742 51.8507 449.72 50.992C451.699 50.096 453.603 49.1813 455.432 48.248C457.262 47.2773 458.923 46.3627 460.416 45.504C461.947 44.608 463.198 43.8987 464.168 43.376C465.176 42.816 465.83 42.536 466.128 42.536C466.95 42.536 467.547 42.7787 467.92 43.264C468.294 43.7493 468.48 44.272 468.48 44.832C468.48 45.0933 467.976 45.672 466.968 46.568C465.998 47.464 464.654 48.528 462.936 49.76C461.256 50.9547 459.352 52.2053 457.224 53.512C455.134 54.7813 452.95 55.9947 450.672 57.152C448.432 58.272 446.248 59.168 444.12 59.84C442.03 60.5493 440.126 60.904 438.408 60.904ZM438.632 44.384C440.163 43.488 441.675 42.5547 443.168 41.584C444.699 40.576 445.968 39.456 446.976 38.224C447.984 36.9547 448.488 35.48 448.488 33.8C448.488 33.3147 448.358 32.9973 448.096 32.848C447.835 32.6613 447.462 32.568 446.976 32.568C445.67 32.568 444.475 33.1467 443.392 34.304C442.347 35.4613 441.414 36.9547 440.592 38.784C439.808 40.576 439.155 42.4427 438.632 44.384Z" fill="#FEFAE0"/>
</svg>
