
<svg width="16" height="16" viewBox="0 0 0.937479873 0.937522091" version="1.1" xmlns="http://www.w3.org/2000/svg" xmlns:xlink="http://www.w3.org/1999/xlink">
    <g id="Page-1" stroke="none" stroke-width="1" fill="none" fill-rule="evenodd">
        <g id="Group" fill="#687441">
            <path d="M0.934682278,0.141342365 C0.945666653,0.12088924 0.920760403,0.127092365 0.920760403,0.127092365 C0.920760403,0.127092365 0.754713528,0.28648299 0.731635403,0.26695174 C0.708557278,0.24742049 0.894213528,0.094654865 0.872244778,0.06610799 C0.851916653,0.039498615 0.688807278,0.229467365 0.669213528,0.20626424 C0.649807278,0.18310799 0.808885403,0.016842365 0.808885403,0.016842365 C0.808885403,0.016842365 0.814932278,-0.00818888501 0.794635403,0.00277986499 C0.544526028,0.137279865 0.512666653,0.26267049 0.512666653,0.26267049 C0.512666653,0.26267049 0.504057278,0.287092365 0.522744778,0.305967365 C0.524572903,0.30760799 0.0664322782,0.763154865 0.00510415319,0.824654865 C-0.0247395968,0.854467365 0.0847604032,0.96217049 0.114416653,0.93235799 C0.175760403,0.87085799 0.630416653,0.411998615 0.632057278,0.41370174 C0.650916653,0.432529865 0.675276028,0.42388924 0.675276028,0.42388924 C0.675276028,0.42388924 0.800463528,0.391936115 0.934682278,0.141342365" id="Path"></path>
            <path d="M0.469166653,0.601686115 C0.591088528,0.723873615 0.796635403,0.92979549 0.796635403,0.92979549 C0.796635403,0.92979549 0.886354153,0.900436115 0.898994778,0.824654865 L0.572822903,0.497842365 C0.538238985,0.532425156 0.503686887,0.567039754 0.469166653,0.601686115 M0.308729153,0.495779865 C0.352462756,0.452081127 0.396145078,0.408331097 0.439776028,0.364529865 L0.0852760282,0.00935798999 C0.0852760282,0.00935798999 0.0788697782,0.00263923999 0.0647604032,0.016811115 C0.0367447782,0.04473299 -0.0174583468,0.22263924 0.212338528,0.452779865 C0.248760403,0.489279865 0.280447903,0.494342365 0.308729153,0.495779865" id="Shape"></path>
        </g>
    </g>
</svg>